<svg xmlns="http://www.w3.org/2000/svg" width="1000" height="520" viewBox="0 0 1000 520" role="img" aria-label="World map base"><g fill="#E8EBF1" stroke="#D9D9D9" stroke-width="1.1" stroke-linejoin="round" fill-rule="evenodd"><path d="M 316.2,368.3 L281.6,314.0 L281.9,293.5 L292.3,273.6 L290.3,255.6 L282.8,260.0 L270.7,249.1 L267.2,235.7 L227.7,215.8 L214.8,164.8 L214.9,198.1 L206.9,179.3 L202.3,138.0 L224.4,103.9 L221.3,99.4 L218.3,98.1 L222.4,76.4 L203.6,68.8 L189.0,73.5 L197.7,67.8 L165.3,82.5 L146.8,87.2 L177.3,74.2 L166.4,74.9 L165.6,69.8 L188.8,58.9 L177.6,59.1 L191.5,55.7 L189.3,50.7 L217.4,44.4 L318.9,53.0 L331.3,43.7 L335.2,53.2 L349.9,48.9 L314.5,65.8 L305.5,74.1 L324.8,85.0 L323.9,96.9 L346.6,64.5 L360.0,68.4 L360.0,76.1 L369.1,70.3 L369.9,81.5 L379.3,90.6 L366.6,100.0 L352.5,100.0 L337.8,111.0 L354.3,103.2 L352.3,113.0 L354.7,114.6 L358.7,114.1 L362.1,110.4 L362.6,114.0 L336.4,121.5 L315.4,144.2 L316.5,137.3 L314.2,150.2 L296.2,165.3 L293.2,188.9 L287.9,170.4 L263.0,171.8 L252.6,178.9 L245.7,199.6 L251.5,216.4 L273.2,203.1 L264.6,225.4 L278.9,227.8 L279.7,252.9 L294.0,254.3 L308.7,239.1 L307.9,252.6 L313.5,240.2 L317.7,246.6 L334.6,246.0 L333.0,249.1 L346.4,265.1 L361.8,272.2 L369.1,294.2 L405.2,311.3 L393.4,376.9 L377.3,388.3 L367.2,424.0 L355.4,422.3 L360.4,437.7 L345.4,447.9 L350.8,453.1 L345.0,463.2 L350.9,471.7 L347.0,480.0 L351.3,485.0 L348.3,484.9 L346.1,486.7 L347.0,489.5 L336.3,484.8 L327.2,466.8 L316.2,368.3Z"/><path d="M 320.4,214.6 L311.8,218.6 L304.1,215.6 L308.3,209.5 L320.4,214.6Z"/><path d="M 291.0,197.0 L305.5,208.9 L296.3,209.7 L287.6,198.8 L278.8,201.7 L291.0,197.0Z"/><path d="M 216.1,98.3 L220.8,99.8 L221.8,105.5 L217.7,104.5 L216.1,98.3Z"/><path d="M 164.9,59.7 L159.0,55.7 L152.3,58.4 L166.8,49.3 L168.1,55.2 L174.8,53.9 L164.9,59.7Z"/><path d="M 315.2,47.1 L289.3,50.3 L285.1,47.2 L295.0,46.4 L285.0,44.0 L309.7,40.9 L315.2,47.1Z"/><path d="M 345.2,491.5 L337.7,486.5 L347.1,490.3 L350.6,485.9 L360.9,492.1 L345.2,491.5Z"/><path d="M 478.5,271.6 L453.2,230.0 L455.8,201.8 L485.5,149.4 L523.1,143.7 L525.6,156.6 L548.1,169.7 L553.6,160.1 L572.6,167.4 L586.5,164.9 L588.2,146.2 L567.4,146.2 L562.8,136.2 L579.1,127.2 L598.4,128.9 L584.7,116.3 L589.0,109.6 L578.7,119.2 L570.3,111.8 L568.4,130.6 L554.0,133.4 L556.5,147.0 L530.2,114.6 L544.1,133.7 L539.0,141.4 L520.6,119.2 L507.3,123.6 L494.8,146.1 L478.3,145.4 L478.0,123.8 L496.8,120.4 L489.7,105.0 L517.5,89.8 L517.9,79.3 L522.0,77.5 L523.5,88.4 L542.1,87.1 L545.0,78.4 L550.5,79.5 L547.8,73.4 L559.2,71.1 L543.0,69.3 L545.7,56.0 L535.3,64.0 L538.2,71.0 L530.0,84.2 L521.2,72.6 L511.7,75.1 L509.9,66.0 L535.2,47.5 L575.4,51.6 L563.0,54.5 L572.3,61.2 L583.9,55.8 L580.8,50.2 L628.0,51.2 L620.8,45.1 L624.0,41.3 L638.1,55.6 L632.7,41.6 L646.5,43.7 L641.9,40.2 L677.0,33.8 L738.4,45.6 L829.1,48.4 L856.0,65.1 L832.9,71.6 L846.1,85.8 L846.1,97.6 L827.0,80.2 L825.8,64.5 L823.8,69.7 L814.0,67.4 L817.9,73.5 L791.8,73.8 L788.8,86.2 L806.5,91.1 L815.6,105.7 L815.4,122.5 L809.6,122.9 L805.4,135.1 L817.6,151.9 L812.3,154.4 L800.5,135.9 L791.4,138.2 L789.1,131.0 L783.6,137.1 L798.3,145.2 L793.4,152.5 L809.3,177.4 L800.8,198.3 L788.9,207.8 L782.6,202.4 L777.4,210.1 L788.6,227.8 L789.6,244.8 L781.9,254.5 L766.3,235.2 L765.8,251.9 L780.9,284.0 L763.9,257.7 L756.5,221.2 L749.2,224.8 L737.3,198.3 L726.7,203.3 L712.6,225.3 L713.6,247.4 L708.1,257.0 L689.4,203.8 L684.0,205.7 L670.6,188.1 L636.8,182.8 L623.3,169.5 L633.8,193.5 L644.4,184.4 L655.5,200.1 L645.8,220.0 L615.9,238.3 L587.9,171.6 L586.4,179.6 L581.8,171.3 L614.0,241.9 L619.3,247.1 L636.3,240.7 L636.5,246.3 L628.5,272.2 L605.5,308.1 L607.2,351.2 L591.1,368.4 L592.1,383.7 L581.7,403.0 L563.8,422.4 L545.2,422.1 L531.0,361.7 L536.6,332.5 L523.7,293.7 L522.9,269.9 L515.9,272.0 L507.2,263.9 L478.5,271.6ZM 620.3,133.4 L619.4,142.8 L631.0,145.1 L626.0,134.2 L630.1,130.9 L617.0,119.5 L622.4,116.2 L616.6,110.3 L608.2,118.4 L620.3,133.4Z"/><path d="M 380.3,103.1 L378.8,111.6 L365.6,108.5 L377.3,95.6 L373.4,101.3 L380.3,103.1Z"/><path d="M 483.9,85.0 L486.9,90.9 L478.1,95.0 L479.1,88.7 L483.9,85.0Z"/><path d="M 493.7,88.4 L488.0,77.2 L493.8,75.0 L503.2,96.7 L487.2,100.2 L493.7,88.4Z"/><path d="M 343.2,61.5 L331.5,63.2 L329.0,62.0 L335.5,56.6 L343.2,61.5Z"/><path d="M 463.4,62.1 L453.3,56.9 L473.8,58.1 L463.4,62.1Z"/><path d="M 376.3,48.9 L372.3,49.9 L382.9,54.0 L370.4,55.4 L373.0,62.3 L365.4,61.5 L368.1,66.1 L347.6,59.4 L363.1,53.0 L358.2,47.6 L337.4,45.6 L355.1,40.0 L355.3,43.1 L376.3,48.9Z"/><path d="M 466.0,28.1 L447.7,28.6 L479.9,29.5 L466.7,30.7 L466.1,39.1 L455.7,42.6 L460.5,45.8 L451.9,46.7 L459.1,46.9 L423.5,57.3 L411.9,70.9 L398.8,61.8 L398.2,53.3 L406.8,47.3 L399.5,48.0 L406.5,46.0 L400.0,38.4 L376.1,33.3 L401.1,28.7 L466.0,28.1Z"/><path d="M 335.1,34.5 L345.8,36.9 L361.2,37.3 L343.2,38.7 L335.1,34.5Z"/><path d="M 349.6,28.9 L392.7,27.9 L398.9,28.2 L346.5,35.6 L364.3,30.3 L349.6,28.9Z"/><path d="M 356.5,31.6 L343.4,32.9 L339.3,30.7 L347.6,29.5 L356.5,31.6Z"/><path d="M 530.2,142.7 L537.5,140.5 L536.8,146.3 L530.2,142.7Z"/><path d="M 536.1,32.1 L523.4,34.2 L517.4,31.3 L536.1,32.1Z"/><path d="M 618.0,35.4 L599.0,42.5 L604.5,45.7 L592.2,43.2 L618.0,35.4Z"/><path d="M 631.2,337.7 L621.3,388.5 L616.7,391.0 L615.9,359.1 L631.2,337.7Z"/><path d="M 807.1,324.6 L790.6,320.6 L783.1,316.9 L797.7,315.3 L807.1,324.6Z"/><path d="M 784.5,312.9 L776.2,306.3 L756.3,267.1 L779.9,288.8 L785.8,301.6 L784.5,312.9Z"/><path d="M 820.7,285.6 L812.7,305.4 L801.8,303.3 L793.7,287.5 L814.6,261.2 L820.6,267.4 L816.0,276.1 L820.7,285.6Z"/><path d="M 911.9,445.9 L891.9,464.4 L882.0,465.4 L911.9,445.9Z"/><path d="M 841.2,456.4 L844.5,446.6 L852.6,447.2 L846.3,455.3 L841.2,456.4Z"/><path d="M 914.5,450.0 L924.3,434.9 L927.0,424.2 L926.3,434.2 L932.8,436.0 L914.5,450.0Z"/><path d="M 829.0,413.3 L784.3,423.3 L797.3,376.2 L816.7,368.1 L833.9,346.5 L843.8,349.4 L853.6,334.1 L864.2,337.0 L859.3,349.5 L869.4,360.3 L881.0,332.2 L892.7,392.8 L864.2,435.0 L851.9,440.8 L840.3,437.1 L841.3,424.0 L836.3,427.2 L842.9,418.5 L834.9,425.8 L829.0,413.3Z"/><path d="M 889.3,304.8 L902.9,331.9 L888.5,320.0 L882.0,326.9 L869.1,323.2 L871.0,311.0 L858.0,305.8 L860.3,298.2 L851.8,293.0 L861.1,292.4 L864.8,302.8 L872.8,296.1 L889.3,304.8Z"/><path d="M 898.8,312.4 L908.0,306.1 L910.1,306.7 L903.8,314.7 L898.8,312.4Z"/><path d="M 824.0,288.3 L825.9,294.9 L832.5,291.7 L827.4,296.9 L831.5,308.2 L829.8,312.0 L825.9,299.8 L821.1,311.0 L823.0,288.6 L837.5,283.5 L824.0,288.3Z"/><path d="M 845.3,292.9 L843.4,285.1 L844.7,280.4 L846.8,284.6 L845.3,292.9Z"/><path d="M 833.9,264.3 L831.7,257.6 L827.4,260.2 L835.7,249.8 L839.8,260.2 L833.9,264.3Z"/><path d="M 817.4,215.0 L830.7,238.7 L820.7,233.4 L817.4,215.0Z"/><path d="M 836.9,157.8 L833.2,153.7 L824.3,156.3 L828.1,166.8 L821.3,158.4 L825.6,150.6 L833.0,150.3 L835.1,129.5 L844.9,149.1 L836.9,157.8Z"/><path d="M 833.9,128.7 L827.0,115.2 L840.7,123.0 L833.9,128.7Z"/><path d="M 829.1,113.3 L826.3,113.9 L805.3,87.7 L829.1,113.3Z"/></g></svg>
